<svg width="50" height="52" viewBox="0 0 50 52" fill="none" xmlns="http://www.w3.org/2000/svg">
<path d="M38.9792 41.9883C37.25 44.6523 35.4167 47.252 32.625 47.2949C29.8334 47.3594 28.9375 45.5977 25.7709 45.5977C22.5834 45.5977 21.6042 47.252 18.9584 47.3594C16.2292 47.4668 14.1667 44.5234 12.4167 41.9238C8.85422 36.6172 6.12505 26.8418 9.79172 20.2676C11.6042 17.002 14.8542 14.9395 18.375 14.875C21.0417 14.832 23.5834 16.7441 25.2292 16.7441C26.8542 16.7441 29.9375 14.4453 33.1667 14.7891C34.5209 14.8535 38.3125 15.3477 40.75 19.043C40.5625 19.1719 36.2292 21.793 36.2709 27.2285C36.3334 33.7168 41.7917 35.8867 41.8542 35.9082C41.7917 36.0586 40.9792 39.002 38.9792 41.9883ZM27.0834 7.61328C28.6042 5.83008 31.125 4.47656 33.2084 4.39062C33.4792 6.9043 32.5 9.43945 31.0417 11.2441C29.6042 13.0703 27.2292 14.4883 24.8959 14.2949C24.5834 11.8242 25.75 9.24609 27.0834 7.61328Z" fill="white"/>
</svg>
