<svg width="50" height="52" viewBox="0 0 50 52" fill="none" xmlns="http://www.w3.org/2000/svg">
<path d="M47.9167 24.0703H43.75V19.7734H39.5834V24.0703H35.4167V28.3672H39.5834V32.6641H43.75V28.3672H47.9167M16.6667 24.0703V29.2266H25C24.5834 31.375 22.5 35.6719 16.6667 35.6719C11.6667 35.6719 7.70837 31.375 7.70837 26.2188C7.70837 21.0625 11.6667 16.7656 16.6667 16.7656C19.5834 16.7656 21.4584 18.0547 22.5 19.1289L26.4584 15.2617C23.9584 12.6836 20.625 11.1797 16.6667 11.1797C8.54171 11.1797 2.08337 17.8398 2.08337 26.2188C2.08337 34.5977 8.54171 41.2578 16.6667 41.2578C25 41.2578 30.625 35.2422 30.625 26.6484C30.625 25.5742 30.625 24.9297 30.4167 24.0703H16.6667Z" fill="white"/>
</svg>
